<svg width="65" height="52" viewBox="0 0 65 52" fill="none" xmlns="http://www.w3.org/2000/svg">
<g clip-path="url(#clip0_10_43)">
<path d="M52.7585 26.7583C48.5064 17.9183 33.3668 17.4417 37.0231 4.59333C37.2939 3.63999 36.021 2.90333 34.9918 3.40166C25.1606 8.03833 18.0918 17.3333 24.0231 29.51C24.5106 30.5067 23.0481 31.4383 21.9918 30.7883C17.0897 27.82 16.5752 23.5517 17.0085 20.4967C17.171 19.37 15.3293 18.8283 14.5439 19.76C12.7022 22.0133 10.8335 25.6533 10.8335 31.135C11.8627 43.2683 24.6731 46.995 29.2772 47.4717C35.8585 48.1433 42.9814 47.1683 48.1002 43.42C53.7335 39.2383 55.7918 32.565 52.7585 26.7583ZM27.6252 37.6567C31.5252 36.8983 33.5293 34.645 34.071 32.6517C34.9647 29.5533 31.471 26.52 33.8272 21.6233C34.721 25.675 42.6835 28.21 42.6835 32.63C42.9002 38.1117 35.4793 42.8133 27.6252 37.6567Z" fill="white"/>
</g>
<defs>
<clipPath id="clip0_10_43">
<rect width="65" height="52" fill="white"/>
</clipPath>
</defs>
</svg>
