<svg width="64" height="40" viewBox="0 0 64 40" fill="none" xmlns="http://www.w3.org/2000/svg">
<g clip-path="url(#clip0_10_44)">
<path d="M50.6668 8.33333V15H10.6668V8.33333H50.6668ZM50.6668 25V31.6667H10.6668V25H50.6668ZM53.3335 5H8.00016C6.5335 5 5.3335 5.75 5.3335 6.66667V16.6667C5.3335 17.5833 6.5335 18.3333 8.00016 18.3333H53.3335C54.8002 18.3333 56.0002 17.5833 56.0002 16.6667V6.66667C56.0002 5.75 54.8002 5 53.3335 5ZM53.3335 21.6667H8.00016C6.5335 21.6667 5.3335 22.4167 5.3335 23.3333V33.3333C5.3335 34.25 6.5335 35 8.00016 35H53.3335C54.8002 35 56.0002 34.25 56.0002 33.3333V23.3333C56.0002 22.4167 54.8002 21.6667 53.3335 21.6667Z" fill="white"/>
</g>
<defs>
<clipPath id="clip0_10_44">
<rect width="64" height="40" fill="white"/>
</clipPath>
</defs>
</svg>
